<svg xmlns="http://www.w3.org/2000/svg" width="48" height="48" viewBox="0 0 48 48"><g class="nc-icon-wrapper" fill="#020202"><path data-color="color-2" d="M4.395 13.989a23.143 23.143 0 0 1 9.978-8.869C13.272 2.694 10.833 1 8 1 4.14 1 1 4.14 1 8c0 2.54 1.365 4.762 3.395 5.989z"/><path data-color="color-2" d="M43.605 13.989a23.143 23.143 0 0 0-9.978-8.869C34.728 2.694 37.167 1 40 1c3.86 0 7 3.14 7 7 0 2.54-1.365 4.762-3.395 5.989z"/><path fill="#020202" d="M24 5C12.42 5 3 14.42 3 26s9.42 21 21 21 21-9.42 21-21S35.58 5 24 5zm-7 19a2 2 0 1 1-.001-3.999A2 2 0 0 1 17 24zm11 14h-8a1 1 0 0 1 0-2h3v-2.667L20.2 29.6A.999.999 0 0 1 21 28h6a1.001 1.001 0 0 1 .8 1.6L25 33.333V36h3a1 1 0 0 1 0 2zm3-14a2 2 0 1 1-.001-3.999A2 2 0 0 1 31 24z"/></g></svg>